<?xml version="1.0" encoding="UTF-8" standalone="no"?>
<!DOCTYPE svg PUBLIC "-//W3C//DTD SVG 1.1//EN" "http://www.w3.org/Graphics/SVG/1.1/DTD/svg11.dtd">
<svg width="100%" height="100%" viewBox="0 0 677 705" version="1.1" xmlns="http://www.w3.org/2000/svg" xmlns:xlink="http://www.w3.org/1999/xlink" xml:space="preserve" xmlns:serif="http://www.serif.com/" style="fill-rule:evenodd;clip-rule:evenodd;stroke-linejoin:round;stroke-miterlimit:2;">
    <g id="Artboard1" transform="matrix(1,0,0,1,-491.493,-153.643)">
        <rect x="491.493" y="153.643" width="676.367" height="704.354" style="fill:none;"/>
        <g id="Layer_2" transform="matrix(1,0,0,1,0.492506,0.642841)">
            <path d="M973,298.87C974.6,303.58 976.05,308.51 979.48,312.35C982.91,316.19 989,318.64 994,316.6C999.48,314.36 1001.15,307.76 999.54,302.54C997.93,297.32 994,293 990.68,288.47C987.36,283.94 984.68,278.47 986.03,273.23C987.88,266.01 996.56,261.76 999.54,254.84C1002.68,247.53 998.7,239.4 994.27,232.65C981.015,212.705 963.718,195.765 943.5,182.93C935.5,177.79 926.72,173.15 917,171.66C907.28,170.17 896.41,172.32 889.91,178.98C869.3,200.11 916,219.76 928.91,231.8C949.15,250.65 964.53,273.77 973,298.87Z" style="fill:rgb(242,242,242);fill-rule:nonzero;"/>
            <path d="M1071.27,589.62C1069.76,590.68 1067.47,592.62 1065.27,592.01C1062.72,591.26 1062.27,586.01 1064.16,584.47C1080.16,571.22 1090.06,537.22 1099.96,542.16C1112.44,548.38 1080,583.47 1071.27,589.62Z" style="fill:rgb(242,242,242);fill-rule:nonzero;"/>
            <path d="M865.63,731.52C868.51,733.37 868.27,737.35 866.72,740.36C864.62,744.42 859.51,747.64 854.62,749.71C851.664,751.018 848.392,751.442 845.2,750.93C836.59,749.24 839.14,740.61 845.64,736.61C849.844,733.98 854.528,732.209 859.42,731.4C861.477,731.023 863.589,731.063 865.63,731.52Z" style="fill:rgb(242,242,242);fill-rule:nonzero;"/>
            <path d="M992.64,418.32C996.52,415.27 997.36,410.24 997.79,405.64C999.231,390.231 998.828,374.704 996.59,359.39C996.12,356.15 995.52,352.8 993.5,350.06C991.48,347.32 987.65,345.37 984.13,346.27C979.2,347.53 977.77,353.04 977.19,357.59C975.19,373.23 973.19,388.873 971.19,404.52C970.85,407.2 970.53,410.03 971.75,412.52C974.16,417.28 987.92,422 992.64,418.32Z" style="fill:rgb(242,242,242);fill-rule:nonzero;"/>
            <path d="M1060.51,695.06C1064.51,689.06 1066.2,684.86 1070.44,678.73C1072.52,675.73 1076.31,675.73 1078.38,676.35C1080.02,676.85 1079.55,681.18 1078.93,682.63C1075.03,691.457 1068.56,698.913 1060.38,704.03C1058.12,705.51 1055.24,703.09 1056.68,700.94C1057.92,699.09 1059.11,697.18 1060.51,695.06Z" style="fill:rgb(242,242,242);fill-rule:nonzero;"/>
            <path d="M1070.12,321.44C1067.02,322.38 1066.4,326.05 1066.59,328.98C1067.35,339.694 1071.35,349.927 1078.07,358.31C1079.32,360.061 1080.92,361.524 1082.78,362.6C1095.06,368.93 1091.33,348.84 1089.58,343.86C1087.67,338.45 1078.13,319 1070.12,321.44Z" style="fill:rgb(242,242,242);fill-rule:nonzero;"/>
            <path d="M1048.19,239.26C1046.43,237.346 1044.34,235.767 1042.02,234.6C1039.57,233.408 1036.72,233.364 1034.24,234.48C1031.73,235.961 1030.32,238.795 1030.66,241.69C1030.89,244.45 1032.23,247.03 1033.55,249.53C1036.47,255.05 1036.79,255.78 1039.71,261.3C1041.63,264.94 1044.51,269.14 1048.99,269.05C1051.18,269.05 1053.24,267.8 1055.43,267.93C1060.13,268.22 1068.87,283.27 1070.94,286.84C1072.76,290 1077.71,287.44 1077.15,285.36C1072.53,268.39 1060.71,251.64 1048.19,239.26Z" style="fill:rgb(242,242,242);fill-rule:nonzero;"/>
            <path d="M706.84,727.68C714.66,725.74 722.84,724.1 729.36,719.78C735.88,715.46 740.3,707.52 737.25,700.78C734.25,694.25 725.45,691.25 717.65,691.94C709.85,692.63 702.76,696.15 695.74,699.3C648.19,720.62 592.86,727.61 540.62,718.88C535.12,717.96 529.56,716.88 523.99,717.37C518.42,717.86 512.74,720.29 510.15,724.74C506.47,731.05 510.45,739.24 516.94,743.32C523.43,747.4 531.68,748.32 539.57,748.89C566.785,750.768 594.127,749.344 621,744.65C624.261,743.995 627.561,743.557 630.88,743.34C646.65,740.81 682.29,734.13 696.55,730.86C699.899,729.553 703.338,728.491 706.84,727.68Z" style="fill:rgb(242,242,242);fill-rule:nonzero;"/>
            <path d="M771.63,728.82C766.63,724.49 758.39,726.4 751.85,728.57C736,733.86 715.3,744.89 698.46,746C692.1,746.42 685.83,744.72 687.66,738.22C688.59,734.94 692.34,732.57 696.51,730.86C682.25,734.13 646.61,740.81 630.84,743.34C632.969,743.231 635.104,743.399 637.19,743.84C642.49,745.02 647.41,749.26 646.92,754.16C646.04,763.07 629.47,766.79 631.08,775.62C632.3,782.35 642.55,783.34 650.08,782.41C687.354,777.833 723.748,767.771 758.08,752.55C763.31,750.22 768.69,747.61 772.02,743.29C775.35,738.97 775.86,732.44 771.63,728.82Z" style="fill:rgb(242,242,242);fill-rule:nonzero;"/>
            <path d="M660.17,827.62C672.05,827.13 684,826 695.17,822.88C706.34,819.76 716.9,814.5 723.89,807C726.34,804.37 728.21,800.44 725.3,798.11C722.93,796.21 718.95,796.7 715.69,797.42C703.8,800.05 692.38,803.86 680.61,806.8C650.721,814.178 619.729,816.005 589.18,812.19C584.12,811.56 573.56,810.97 573.55,817.19C573.55,821.42 581.76,821.79 585.65,822.49C601.237,825.315 617.002,827.053 632.83,827.69C641.93,828 651.07,828 660.17,827.62Z" style="fill:rgb(242,242,242);fill-rule:nonzero;"/>
            <path d="M901.4,541C908.4,533.46 914.81,525.37 921.13,517.31C925.36,511.91 929.62,506.47 933.57,500.88C929.3,505.27 924.73,512.18 918.57,519.09C911.71,526.83 903.75,535 901.4,541Z" style="fill:rgb(242,242,242);fill-rule:nonzero;"/>
            <path d="M901.4,541C903.75,535 911.71,526.83 918.58,519.09C924.73,512.18 929.3,505.27 933.58,500.88C939.58,492.45 944.84,483.68 948.31,474.21C949.972,469.685 951.208,465.015 952,460.26C951.81,458.74 951.69,457.21 951.57,455.69C950.143,436.237 948.707,416.79 947.26,397.35C946.71,389.9 946.08,382.18 942.15,375.6C938.22,369.02 930,363.87 921.86,365.34C914.79,366.62 909.66,372.54 907.8,378.81C905.94,385.08 906.72,391.71 907.52,398.16C910.15,419.07 912.97,440.1 911.41,461.09C909.85,482.08 903.61,503.3 889.71,520.22C879.89,532.16 866.52,541.7 858.33,554.59C854.6,560.45 851.95,566.98 848.89,573.21C863,570.4 876.06,563.38 886.89,554.64C892.044,550.444 896.893,545.885 901.4,541Z" style="fill:rgb(242,242,242);fill-rule:nonzero;"/>
            <path d="M1006,480.76C1010,472.88 1011.06,463.07 1004.15,456.2C1000.87,452.989 996.311,451.423 991.75,451.94C980.09,453.41 979.23,466.62 972.92,472.76C971.35,474.335 969.318,475.369 967.12,475.71C963.263,476.233 959.384,474.847 956.73,472C953.59,468.62 952.49,464.51 951.96,460.31C951.178,465.064 949.952,469.734 948.3,474.26C944.83,483.73 939.54,492.5 933.57,500.93C938.65,495.71 943.31,494.06 949.71,500.22C954.71,505.05 956.58,508.51 956.14,512.22C955.54,517.22 950.75,522.66 943.82,532.52C943.82,532.52 930.36,550.36 916.06,550.52C902.06,550.71 899.16,546.81 901.4,541.02C896.899,545.907 892.053,550.466 886.9,554.66C876.06,563.4 863,570.42 848.9,573.23C845.56,580.03 841.75,586.47 835.53,591.23C829.82,595.65 822.65,598.16 815.93,601.23C809.21,604.3 802.51,608.23 799.14,614.31C795.77,620.39 797.73,627.18 803.62,632.31C809.51,637.44 830.89,633.13 819.35,647.63C812.04,656.82 795.35,664.18 785.42,671.03C775.72,677.7 764.86,687.2 768.19,697.77C770.19,704.01 776.95,708.3 784.03,709.54C787.976,710.155 791.994,710.155 795.94,709.54C817.44,706.54 837.4,697.67 854.36,685.42L910.2,645.08C914.43,642.02 920.71,644.67 920.8,649.54C918.31,662.12 936.05,659.54 940.19,656.07C968.02,632.6 983.13,602.61 1000.94,572.26C1004.15,566.79 1007.24,560.4 1004.76,554.63C1002.39,549.11 995.76,546.21 991.28,541.89C979.59,530.65 984.15,512.09 993.28,499.08C997.57,493 1002.71,487.33 1006,480.76Z" style="fill:rgb(242,242,242);fill-rule:nonzero;"/>
            <path d="M1032.1,609.8C1030.9,608.443 1029.45,607.332 1027.83,606.53C1010.23,642.6 989.58,718.68 887.95,697.36C887.24,697.36 886.52,697.43 885.8,697.45C881.13,697.57 873.85,695.2 866.8,698.31C863.3,699.84 860.48,703.45 860.6,707.44C860.756,710.053 861.966,712.493 863.95,714.2C869.95,719.81 884.95,713.61 896.28,714.49C918.17,716.21 919.78,721.49 939.51,720.7C949.93,720.26 966.51,714.05 976.09,707.62C1004.45,688.5 1024.71,666.78 1034.18,633.91C1036.48,625.82 1037.64,616.15 1032.1,609.8Z" style="fill:rgb(242,242,242);fill-rule:nonzero;"/>
            <path d="M1027.83,606.53C1027.18,606.206 1026.51,605.926 1025.83,605.69C1020.14,603.69 1013.13,604.78 1007.75,607.9C1000.13,612.33 994.9,619.83 989.55,626.83C977.814,642.188 964.397,656.185 949.55,668.56C931.83,683.31 910.89,696.07 887.96,697.36C989.58,718.68 1010.23,642.6 1027.83,606.53Z" style="fill:rgb(242,242,242);fill-rule:nonzero;"/>
            <path d="M1047,544.56C1069.45,552.36 1109.19,482.38 1114.84,450.79C1120.49,419.2 1104.53,377.63 1075.93,378.96C1047.33,380.29 1063.3,355.35 1051.33,336.06C1039.36,316.77 1017.41,321.43 1018.74,343.38C1020.07,365.33 1023.14,417.77 1037.57,426.96C1052,436.15 1063.66,424.36 1064.96,436.27C1066.39,449.46 1023.05,536.25 1047,544.56Z" style="fill:rgb(242,242,242);fill-rule:nonzero;"/>
        </g>
    </g>
</svg>
