<?xml version="1.0" encoding="UTF-8" standalone="no"?>
<!DOCTYPE svg PUBLIC "-//W3C//DTD SVG 1.1//EN" "http://www.w3.org/Graphics/SVG/1.1/DTD/svg11.dtd">
<svg width="100%" height="100%" viewBox="0 0 624 517" version="1.1" xmlns="http://www.w3.org/2000/svg" xmlns:xlink="http://www.w3.org/1999/xlink" xml:space="preserve" xmlns:serif="http://www.serif.com/" style="fill-rule:evenodd;clip-rule:evenodd;stroke-linejoin:round;stroke-miterlimit:2;">
    <g id="Artboard1" transform="matrix(0.824885,0,0,0.804393,-299.904,-152.147)">
        <rect x="363.571" y="189.145" width="755.582" height="642.685" style="fill:none;"/>
        <g id="bak" transform="matrix(1.21229,0,0,1.24317,-236.893,-202.099)">
            <path d="M888,697.36C887.29,697.36 886.57,697.43 885.85,697.45C881.18,697.57 873.9,695.2 866.85,698.31C863.35,699.84 860.53,703.45 860.65,707.44C860.808,710.052 862.017,712.492 864,714.2C870,719.81 885,713.61 896.33,714.49C918.22,716.21 919.83,721.49 939.56,720.7C949.98,720.26 966.56,714.05 976.14,707.62C1004.5,688.5 1024.76,666.78 1034.23,633.91C1036.53,625.82 1037.69,616.15 1032.15,609.8C1030.95,608.443 1029.5,607.332 1027.88,606.53C1027.23,606.211 1026.56,605.93 1025.88,605.69C1020.19,603.69 1013.18,604.78 1007.8,607.9C1000.18,612.33 994.95,619.83 989.6,626.83C977.863,642.187 964.446,656.184 949.6,668.56C931.88,683.31 910.94,696.07 888.01,697.36" style="fill:url(#_Linear1);fill-rule:nonzero;"/>
            <path d="M771.63,728.82C766.63,724.49 758.39,726.4 751.85,728.57C736,733.86 715.3,744.89 698.46,746C692.1,746.42 685.83,744.72 687.66,738.22C688.59,734.94 692.34,732.57 696.51,730.86C699.872,729.552 703.324,728.489 706.84,727.68C714.66,725.74 722.84,724.1 729.36,719.78C735.88,715.46 740.3,707.52 737.25,700.78C734.25,694.25 725.45,691.25 717.65,691.94C709.85,692.63 702.76,696.15 695.74,699.3C648.19,720.62 592.86,727.61 540.62,718.88C535.12,717.96 529.56,716.88 523.99,717.37C518.42,717.86 512.74,720.29 510.15,724.74C506.47,731.05 510.45,739.24 516.94,743.32C523.43,747.4 531.68,748.32 539.57,748.89C566.785,750.768 594.127,749.344 621,744.65C624.261,743.995 627.561,743.557 630.88,743.34C633.009,743.231 635.144,743.399 637.23,743.84C642.53,745.02 647.45,749.26 646.96,754.16C646.08,763.07 629.51,766.79 631.12,775.62C632.34,782.35 642.59,783.34 650.12,782.41C687.394,777.833 723.788,767.771 758.12,752.55C763.35,750.22 768.73,747.61 772.06,743.29C775.39,738.97 775.86,732.44 771.63,728.82Z" style="fill:url(#_Linear2);fill-rule:nonzero;"/>
            <path d="M949.71,500.22C943.31,494.06 938.65,495.71 933.57,500.93L933.57,500.88C929.29,505.27 924.72,512.18 918.57,519.09C911.71,526.83 903.75,535 901.4,541C899.16,546.79 902.06,550.69 916.06,550.5C930.36,550.34 943.82,532.5 943.82,532.5C950.75,522.64 955.54,517.2 956.14,512.2C956.58,508.51 954.71,505.05 949.71,500.22Z" style="fill:none;fill-rule:nonzero;"/>
            <path d="M1006,480.76C1010,472.88 1011.06,463.07 1004.15,456.2C1000.87,452.989 996.311,451.423 991.75,451.94C980.09,453.41 979.23,466.62 972.92,472.76C971.352,474.338 969.319,475.372 967.12,475.71C963.263,476.233 959.384,474.847 956.73,472C953.73,468.74 952.58,464.8 952.03,460.76L906.15,489.25C902.71,500.542 897.128,511.067 889.71,520.25C879.89,532.19 866.52,541.73 858.33,554.62C854.6,560.48 851.95,567.01 848.89,573.24C845.55,580.04 841.74,586.48 835.52,591.24C829.81,595.66 822.64,598.17 815.92,601.24C809.2,604.31 802.5,608.24 799.13,614.32C795.76,620.4 797.72,627.19 803.61,632.32C809.5,637.45 830.88,633.14 819.34,647.64C812.03,656.83 795.34,664.19 785.41,671.04C775.71,677.71 764.85,687.21 768.18,697.78C770.18,704.02 776.94,708.31 784.02,709.55C787.966,710.17 791.984,710.17 795.93,709.55C817.43,706.55 837.39,697.68 854.35,685.43L910.19,645.09C914.42,642.03 920.7,644.68 920.79,649.55C918.3,662.13 936.04,659.55 940.18,656.08C968.01,632.61 983.12,602.62 1000.93,572.27C1004.14,566.8 1007.23,560.41 1004.75,554.64C1002.38,549.12 995.75,546.22 991.27,541.9C979.58,530.66 984.14,512.1 993.27,499.09C997.57,493 1002.71,487.33 1006,480.76ZM956.14,512.22C955.54,517.22 950.75,522.66 943.82,532.52C943.82,532.52 930.36,550.36 916.06,550.52C902.06,550.71 899.16,546.81 901.4,541.02C903.75,535.02 911.71,526.85 918.58,519.11C924.73,512.2 929.3,505.29 933.58,500.9L933.58,500.95C938.66,495.73 943.32,494.08 949.72,500.24C954.71,505.05 956.58,508.51 956.14,512.22Z" style="fill:url(#_Linear3);fill-rule:nonzero;"/>
        </g>
        <g id="Layer_2" transform="matrix(1.21229,0,0,1.24317,-236.893,-202.099)">
            <path d="M1071.27,589.62C1069.76,590.68 1067.47,592.62 1065.27,592.01C1062.72,591.26 1062.27,586.01 1064.16,584.47C1080.16,571.22 1090.06,537.22 1099.96,542.16C1112.44,548.38 1080,583.47 1071.27,589.62Z" style="fill:url(#_Linear4);fill-rule:nonzero;"/>
            <path d="M865.63,731.52C868.51,733.37 868.27,737.35 866.72,740.36C864.62,744.42 859.51,747.64 854.62,749.71C851.664,751.018 848.392,751.442 845.2,750.93C836.59,749.24 839.14,740.61 845.64,736.61C849.844,733.98 854.528,732.209 859.42,731.4C861.477,731.023 863.589,731.063 865.63,731.52Z" style="fill:url(#_Linear5);fill-rule:nonzero;"/>
            <path d="M992.64,418.32C996.52,415.27 997.36,410.24 997.79,405.64C999.231,390.231 998.828,374.704 996.59,359.39C996.12,356.15 995.52,352.8 993.5,350.06C991.48,347.32 987.65,345.37 984.13,346.27C979.2,347.53 977.77,353.04 977.19,357.59C975.19,373.23 973.19,388.873 971.19,404.52C970.85,407.2 970.53,410.03 971.75,412.52C974.16,417.28 987.92,422 992.64,418.32Z" style="fill:url(#_Linear6);fill-rule:nonzero;"/>
            <path d="M1060.51,695.06C1064.51,689.06 1066.2,684.86 1070.44,678.73C1072.52,675.73 1076.31,675.73 1078.38,676.35C1080.02,676.85 1079.55,681.18 1078.93,682.63C1075.03,691.457 1068.56,698.913 1060.38,704.03C1058.12,705.51 1055.24,703.09 1056.68,700.94C1057.92,699.09 1059.11,697.18 1060.51,695.06Z" style="fill:url(#_Linear7);fill-rule:nonzero;"/>
            <path d="M706.84,727.68C714.66,725.74 722.84,724.1 729.36,719.78C735.88,715.46 740.3,707.52 737.25,700.78C734.25,694.25 725.45,691.25 717.65,691.94C709.85,692.63 702.76,696.15 695.74,699.3C648.19,720.62 592.86,727.61 540.62,718.88C535.12,717.96 529.56,716.88 523.99,717.37C518.42,717.86 512.74,720.29 510.15,724.74C506.47,731.05 510.45,739.24 516.94,743.32C523.43,747.4 531.68,748.32 539.57,748.89C566.785,750.768 594.127,749.344 621,744.65C624.261,743.995 627.561,743.557 630.88,743.34C646.65,740.81 682.29,734.13 696.55,730.86C699.899,729.553 703.338,728.491 706.84,727.68Z" style="fill:url(#_Linear8);fill-rule:nonzero;"/>
            <path d="M771.63,728.82C766.63,724.49 758.39,726.4 751.85,728.57C736,733.86 715.3,744.89 698.46,746C692.1,746.42 685.83,744.72 687.66,738.22C688.59,734.94 692.34,732.57 696.51,730.86C682.25,734.13 646.61,740.81 630.84,743.34C632.969,743.231 635.104,743.399 637.19,743.84C642.49,745.02 647.41,749.26 646.92,754.16C646.04,763.07 629.47,766.79 631.08,775.62C632.3,782.35 642.55,783.34 650.08,782.41C687.354,777.833 723.748,767.771 758.08,752.55C763.31,750.22 768.69,747.61 772.02,743.29C775.35,738.97 775.86,732.44 771.63,728.82Z" style="fill:url(#_Linear9);fill-rule:nonzero;"/>
            <path d="M660.17,827.62C672.05,827.13 684,826 695.17,822.88C706.34,819.76 716.9,814.5 723.89,807C726.34,804.37 728.21,800.44 725.3,798.11C722.93,796.21 718.95,796.7 715.69,797.42C703.8,800.05 692.38,803.86 680.61,806.8C650.721,814.178 619.729,816.005 589.18,812.19C584.12,811.56 573.56,810.97 573.55,817.19C573.55,821.42 581.76,821.79 585.65,822.49C601.237,825.315 617.002,827.053 632.83,827.69C641.93,828 651.07,828 660.17,827.62Z" style="fill:url(#_Linear10);fill-rule:nonzero;"/>
            <path d="M1032.1,609.8C1030.9,608.443 1029.45,607.332 1027.83,606.53C1010.23,642.6 989.58,718.68 887.95,697.36C887.24,697.36 886.52,697.43 885.8,697.45C881.13,697.57 873.85,695.2 866.8,698.31C863.3,699.84 860.48,703.45 860.6,707.44C860.756,710.053 861.966,712.493 863.95,714.2C869.95,719.81 884.95,713.61 896.28,714.49C918.17,716.21 919.78,721.49 939.51,720.7C949.93,720.26 966.51,714.05 976.09,707.62C1004.45,688.5 1024.71,666.78 1034.18,633.91C1036.48,625.82 1037.64,616.15 1032.1,609.8Z" style="fill:url(#_Linear11);fill-rule:nonzero;"/>
            <path d="M1027.83,606.53C1027.18,606.206 1026.51,605.926 1025.83,605.69C1020.14,603.69 1013.13,604.78 1007.75,607.9C1000.13,612.33 994.9,619.83 989.55,626.83C977.814,642.188 964.397,656.185 949.55,668.56C931.83,683.31 910.89,696.07 887.96,697.36C989.58,718.68 1010.23,642.6 1027.83,606.53Z" style="fill:url(#_Linear12);fill-rule:nonzero;"/>
            <path d="M1047,544.56C1069.45,552.36 1109.19,482.38 1114.84,450.79C1120.49,419.2 1104.53,377.63 1075.93,378.96C1047.33,380.29 1063.3,355.35 1051.33,336.06C1039.36,316.77 1017.41,321.43 1018.74,343.38C1020.07,365.33 1023.14,417.77 1037.57,426.96C1052,436.15 1063.66,424.36 1064.96,436.27C1066.39,449.46 1023.05,536.25 1047,544.56Z" style="fill:url(#_Linear13);fill-rule:nonzero;"/>
            <path d="M901.4,541C903.75,535 911.71,526.83 918.58,519.09C924.73,512.18 929.3,505.27 933.58,500.88C939.58,492.45 944.84,483.68 948.31,474.21C949.972,469.685 951.208,465.015 952,460.26C951.81,458.74 951.69,457.21 951.57,455.69C950.137,436.237 948.7,416.79 947.26,397.35C946.71,389.9 946.08,382.18 942.15,375.6C938.22,369.02 930,363.87 921.86,365.34C914.79,366.62 909.66,372.54 907.8,378.81C905.94,385.08 906.72,391.71 907.52,398.16C910.15,419.07 912.97,440.1 911.41,461.09C909.85,482.08 903.61,503.3 889.71,520.22C879.89,532.16 866.52,541.7 858.33,554.59C854.6,560.45 851.95,566.98 848.89,573.21C863,570.4 876.06,563.38 886.89,554.64C892.043,550.442 896.892,545.884 901.4,541Z" style="fill:url(#_Linear14);fill-rule:nonzero;"/>
            <path d="M1006,480.76C1010,472.88 1011.06,463.07 1004.15,456.2C1000.87,452.989 996.311,451.423 991.75,451.94C980.09,453.41 979.23,466.62 972.92,472.76C971.352,474.338 969.319,475.372 967.12,475.71C963.263,476.233 959.384,474.847 956.73,472C953.59,468.62 952.49,464.51 951.96,460.31C951.177,465.064 949.951,469.734 948.3,474.26C944.83,483.73 939.54,492.5 933.57,500.93C938.65,495.71 943.31,494.06 949.71,500.22C954.71,505.05 956.58,508.51 956.14,512.22C955.54,517.22 950.75,522.66 943.82,532.52C943.82,532.52 930.36,550.36 916.06,550.52C902.06,550.71 899.16,546.81 901.4,541.02C896.9,545.909 892.054,550.467 886.9,554.66C876.06,563.4 863,570.42 848.9,573.23C845.56,580.03 841.75,586.47 835.53,591.23C829.82,595.65 822.65,598.16 815.93,601.23C809.21,604.3 802.51,608.23 799.14,614.31C795.77,620.39 797.73,627.18 803.62,632.31C809.51,637.44 830.89,633.13 819.35,647.63C812.04,656.82 795.35,664.18 785.42,671.03C775.72,677.7 764.86,687.2 768.19,697.77C770.19,704.01 776.95,708.3 784.03,709.54C787.976,710.16 791.994,710.16 795.94,709.54C817.44,706.54 837.4,697.67 854.36,685.42L910.2,645.08C914.43,642.02 920.71,644.67 920.8,649.54C918.31,662.12 936.05,659.54 940.19,656.07C968.02,632.6 983.13,602.61 1000.94,572.26C1004.15,566.79 1007.24,560.4 1004.76,554.63C1002.39,549.11 995.76,546.21 991.28,541.89C979.59,530.65 984.15,512.09 993.28,499.08C997.57,493 1002.71,487.33 1006,480.76Z" style="fill:url(#_Linear15);fill-rule:nonzero;"/>
        </g>
    </g>
    <defs>
        <linearGradient id="_Linear1" x1="0" y1="0" x2="1" y2="0" gradientUnits="userSpaceOnUse" gradientTransform="matrix(220.22,0,0,220.22,826.22,662.73)"><stop offset="0" style="stop-color:rgb(39,0,61);stop-opacity:1"/><stop offset="1" style="stop-color:rgb(2,142,167);stop-opacity:1"/></linearGradient>
        <linearGradient id="_Linear2" x1="0" y1="0" x2="1" y2="0" gradientUnits="userSpaceOnUse" gradientTransform="matrix(114.81,134.22,-134.22,114.81,601.89,687.07)"><stop offset="0" style="stop-color:rgb(39,0,61);stop-opacity:1"/><stop offset="0.54" style="stop-color:rgb(39,0,61);stop-opacity:1"/><stop offset="0.61" style="stop-color:rgb(35,17,74);stop-opacity:1"/><stop offset="0.76" style="stop-color:rgb(23,62,107);stop-opacity:1"/><stop offset="0.97" style="stop-color:rgb(4,133,160);stop-opacity:1"/><stop offset="1" style="stop-color:rgb(2,142,167);stop-opacity:1"/></linearGradient>
        <linearGradient id="_Linear3" x1="0" y1="0" x2="1" y2="0" gradientUnits="userSpaceOnUse" gradientTransform="matrix(-161.95,778.12,-778.12,-161.95,972.17,215.46)"><stop offset="0" style="stop-color:rgb(39,0,61);stop-opacity:1"/><stop offset="0.17" style="stop-color:rgb(39,0,61);stop-opacity:1"/><stop offset="0.33" style="stop-color:rgb(15,91,129);stop-opacity:1"/><stop offset="0.43" style="stop-color:rgb(2,142,167);stop-opacity:1"/><stop offset="0.52" style="stop-color:rgb(3,137,164);stop-opacity:1"/><stop offset="0.58" style="stop-color:rgb(5,130,158);stop-opacity:1"/><stop offset="0.6" style="stop-color:rgb(9,114,146);stop-opacity:1"/><stop offset="0.66" style="stop-color:rgb(18,79,120);stop-opacity:1"/><stop offset="0.71" style="stop-color:rgb(26,50,98);stop-opacity:1"/><stop offset="0.77" style="stop-color:rgb(32,28,82);stop-opacity:1"/><stop offset="0.83" style="stop-color:rgb(36,12,70);stop-opacity:1"/><stop offset="0.9" style="stop-color:rgb(38,3,63);stop-opacity:1"/><stop offset="1" style="stop-color:rgb(39,0,61);stop-opacity:1"/></linearGradient>
        <linearGradient id="_Linear4" x1="0" y1="0" x2="1" y2="0" gradientUnits="userSpaceOnUse" gradientTransform="matrix(903.081,-1895.51,1895.51,903.081,43717.9,30135.2)"><stop offset="0" style="stop-color:rgb(39,0,61);stop-opacity:1"/><stop offset="1" style="stop-color:rgb(2,142,167);stop-opacity:1"/></linearGradient>
        <linearGradient id="_Linear5" x1="0" y1="0" x2="1" y2="0" gradientUnits="userSpaceOnUse" gradientTransform="matrix(-405.524,-223.164,223.164,-405.524,25057,15778.1)"><stop offset="0" style="stop-color:rgb(39,0,61);stop-opacity:1"/><stop offset="1" style="stop-color:rgb(2,142,167);stop-opacity:1"/></linearGradient>
        <linearGradient id="_Linear6" x1="0" y1="0" x2="1" y2="0" gradientUnits="userSpaceOnUse" gradientTransform="matrix(16.9547,-96.375,96.375,16.9547,977.241,440.203)"><stop offset="0" style="stop-color:rgb(2,142,167);stop-opacity:1"/><stop offset="1" style="stop-color:rgb(255,248,252);stop-opacity:1"/></linearGradient>
        <linearGradient id="_Linear7" x1="0" y1="0" x2="1" y2="0" gradientUnits="userSpaceOnUse" gradientTransform="matrix(589.606,-80.3374,80.3374,589.606,25449.3,20281.3)"><stop offset="0" style="stop-color:rgb(39,0,61);stop-opacity:1"/><stop offset="1" style="stop-color:rgb(2,142,167);stop-opacity:1"/></linearGradient>
        <linearGradient id="_Linear8" x1="0" y1="0" x2="1" y2="0" gradientUnits="userSpaceOnUse" gradientTransform="matrix(254.951,-49.2804,49.2804,254.951,511.122,743.335)"><stop offset="0" style="stop-color:rgb(39,0,61);stop-opacity:1"/><stop offset="0.17" style="stop-color:rgb(39,0,61);stop-opacity:1"/><stop offset="1" style="stop-color:rgb(238,58,100);stop-opacity:1"/></linearGradient>
        <linearGradient id="_Linear9" x1="0" y1="0" x2="1" y2="0" gradientUnits="userSpaceOnUse" gradientTransform="matrix(3614.23,2409.56,-2409.56,3614.23,99243.9,41463.9)"><stop offset="0" style="stop-color:rgb(39,0,61);stop-opacity:1"/><stop offset="1" style="stop-color:rgb(2,142,167);stop-opacity:1"/></linearGradient>
        <linearGradient id="_Linear10" x1="0" y1="0" x2="1" y2="0" gradientUnits="userSpaceOnUse" gradientTransform="matrix(223.71,0,0,223.71,573.55,812.32)"><stop offset="0" style="stop-color:rgb(39,0,61);stop-opacity:1"/><stop offset="0.97" style="stop-color:rgb(2,142,167);stop-opacity:1"/><stop offset="1" style="stop-color:rgb(2,142,167);stop-opacity:1"/></linearGradient>
        <linearGradient id="_Linear11" x1="0" y1="0" x2="1" y2="0" gradientUnits="userSpaceOnUse" gradientTransform="matrix(31922.4,-13905.4,13905.4,31922.4,157975,82906.5)"><stop offset="0" style="stop-color:rgb(39,0,61);stop-opacity:1"/><stop offset="1" style="stop-color:rgb(2,142,167);stop-opacity:1"/></linearGradient>
        <linearGradient id="_Linear12" x1="0" y1="0" x2="1" y2="0" gradientUnits="userSpaceOnUse" gradientTransform="matrix(24550,0,0,24550,121254,63532.6)"><stop offset="0" style="stop-color:rgb(39,0,61);stop-opacity:1"/><stop offset="1" style="stop-color:rgb(2,142,167);stop-opacity:1"/></linearGradient>
        <linearGradient id="_Linear13" x1="0" y1="0" x2="1" y2="0" gradientUnits="userSpaceOnUse" gradientTransform="matrix(-10.31,-217.81,217.81,-10.31,1073.39,517.35)"><stop offset="0" style="stop-color:rgb(39,0,61);stop-opacity:1"/><stop offset="0.05" style="stop-color:rgb(39,0,61);stop-opacity:1"/><stop offset="0.13" style="stop-color:rgb(31,32,85);stop-opacity:1"/><stop offset="0.25" style="stop-color:rgb(19,77,118);stop-opacity:1"/><stop offset="0.36" style="stop-color:rgb(10,110,143);stop-opacity:1"/><stop offset="0.45" style="stop-color:rgb(5,130,158);stop-opacity:1"/><stop offset="0.51" style="stop-color:rgb(3,137,163);stop-opacity:1"/><stop offset="0.58" style="stop-color:rgb(5,128,156);stop-opacity:1"/><stop offset="0.69" style="stop-color:rgb(12,102,137);stop-opacity:1"/><stop offset="0.83" style="stop-color:rgb(23,61,107);stop-opacity:1"/><stop offset="0.99" style="stop-color:rgb(38,5,65);stop-opacity:1"/><stop offset="1" style="stop-color:rgb(39,0,61);stop-opacity:1"/></linearGradient>
        <linearGradient id="_Linear14" x1="0" y1="0" x2="1" y2="0" gradientUnits="userSpaceOnUse" gradientTransform="matrix(82.86,-137.63,137.63,82.86,856.33,546.59)"><stop offset="0" style="stop-color:rgb(0,139,168);stop-opacity:1"/><stop offset="0.28" style="stop-color:rgb(0,139,168);stop-opacity:1"/><stop offset="0.43" style="stop-color:rgb(70,118,148);stop-opacity:1"/><stop offset="0.58" style="stop-color:rgb(130,97,131);stop-opacity:1"/><stop offset="0.71" style="stop-color:rgb(176,80,117);stop-opacity:1"/><stop offset="0.83" style="stop-color:rgb(210,68,108);stop-opacity:1"/><stop offset="0.93" style="stop-color:rgb(231,61,102);stop-opacity:1"/><stop offset="1" style="stop-color:rgb(238,58,100);stop-opacity:1"/></linearGradient>
        <linearGradient id="_Linear15" x1="0" y1="0" x2="1" y2="0" gradientUnits="userSpaceOnUse" gradientTransform="matrix(-94.01,-451.69,451.69,-94.01,928.69,774.57)"><stop offset="0" style="stop-color:rgb(39,0,61);stop-opacity:1"/><stop offset="0.17" style="stop-color:rgb(39,0,61);stop-opacity:1"/><stop offset="0.33" style="stop-color:rgb(15,91,129);stop-opacity:1"/><stop offset="0.45" style="stop-color:rgb(0,139,167);stop-opacity:1"/><stop offset="0.49" style="stop-color:rgb(0,139,167);stop-opacity:1"/><stop offset="0.58" style="stop-color:rgb(5,130,158);stop-opacity:1"/><stop offset="0.6" style="stop-color:rgb(9,114,146);stop-opacity:1"/><stop offset="0.66" style="stop-color:rgb(18,79,120);stop-opacity:1"/><stop offset="0.71" style="stop-color:rgb(26,50,98);stop-opacity:1"/><stop offset="0.77" style="stop-color:rgb(32,28,82);stop-opacity:1"/><stop offset="0.83" style="stop-color:rgb(36,12,70);stop-opacity:1"/><stop offset="0.9" style="stop-color:rgb(38,3,63);stop-opacity:1"/><stop offset="1" style="stop-color:rgb(39,0,61);stop-opacity:1"/></linearGradient>
    </defs>
</svg>
